<svg id="Layer_1" data-name="Layer 1" xmlns="http://www.w3.org/2000/svg" xmlns:xlink="http://www.w3.org/1999/xlink" viewBox="0 0 300 300"><defs><style>.cls-1{fill:none;}.cls-2{fill:#83939e;}.cls-3{fill:#54678c;}.cls-4{fill:#fff;}.cls-5{fill:#b283e4;}.cls-6{fill:#434a59;}.cls-7{clip-path:url(#clip-path);}.cls-8{fill:#352744;}.cls-9{fill:#6b4f89;}.cls-10{opacity:0.29;}.cls-11{fill:#2f3849;}.cls-12{fill:#ff867a;}.cls-13{fill:#bfd0dd;}.cls-14{fill:#ffde9f;}.cls-15{fill:#c66c67;}.cls-16{fill:#93cfd8;}.cls-17{fill:#ddaa95;}.cls-18{fill:#404859;}.cls-19{fill:#f9c7af;}.cls-20{fill:#ba4d3a;}.cls-21{fill:#c7d3dd;}.cls-22{fill:#ebf5fc;}.cls-23{fill:#b58471;}.cls-24{fill:#d8a48b;}.cls-25{fill:#9faeb7;}.cls-26{fill:#d3655f;}.cls-27{fill:#61edea;}</style><clipPath id="clip-path"><path class="cls-1" d="M269,14.56H75.28V132.08l-.09,36.44-1.37,88.86,39.34,32.1H251.6A17.4,17.4,0,0,0,269,272.07Z"/></clipPath></defs><path class="cls-2" d="M275.32,289.48H122.52c-2.82,0-14.61.74-12,2.36,2.46,1.51,19.35,2.36,22.17,2.36H279.86c8.57,0,16.18-1.06,13.37-2.36h0C290.42,290.54,284.65,289.48,275.32,289.48Z"/><path class="cls-3" d="M258.86,3.92h-5.08c-10.91,0-133.16,8.84-133.16,19.75v248.6A19.75,19.75,0,0,0,140.37,292H258.86a19.75,19.75,0,0,0,19.75-19.75V23.67A19.75,19.75,0,0,0,258.86,3.92Z"/><rect class="cls-4" x="113.68" y="3.92" width="157.99" height="288.1" rx="19.75"/><path class="cls-5" d="M251.26,6.7H134.33a17.52,17.52,0,0,0-17.52,17.52V271.83a17.63,17.63,0,0,0,17.63,17.63H249.88a18.91,18.91,0,0,0,18.91-18.91V24.22A17.53,17.53,0,0,0,251.26,6.7Z"/><rect class="cls-6" x="173.26" y="13.28" width="37.79" height="2.8" rx="0.95"/><path class="cls-6" d="M169.56,14.68a1.4,1.4,0,1,1-1.4-1.4A1.4,1.4,0,0,1,169.56,14.68Z"/><path class="cls-6" d="M216.68,14.68a1.41,1.41,0,1,1-1.4-1.4A1.41,1.41,0,0,1,216.68,14.68Z"/><g class="cls-7"><path class="cls-4" d="M151.22,43.55a9.51,9.51,0,0,1-4.34-4.69c-1.13-3.12-1.95-7.43,1.75-8.48s11.06.3,13.2-.14,3.24-1.41,4.87-.7,1.75,3.64,1.75,3.64,2.75-.09,3.68,1.44,3.08,13.52,2.59,17.49S172,56.82,169.4,57,151.22,43.55,151.22,43.55Z"/><polygon class="cls-8" points="151.09 261.9 152.93 304.57 272.98 320.42 273.37 233.26 151.09 261.9"/><path class="cls-9" d="M241.4,104.45c-36.66-55.37-102.15-32.65-108.74,1.39C129,124.67,148.71,220.57,150.81,261.4a4.8,4.8,0,0,0,3.45,4.37c47.17,13.56,114.55-3.24,114.55-3.24l.1-20.87a81.06,81.06,0,0,1-2-13.78C263.92,188.87,256.92,127.88,241.4,104.45Z"/><g class="cls-10"><path class="cls-11" d="M189.47,269.07c-2.15-1.67-2.88-4.64-3.41-7.17a82.7,82.7,0,0,1-1.13-8.73c-.86-9-1.92-17.92-2.65-26.9q-1.16-14.36-1.8-28.73a261.31,261.31,0,0,0-2.37-28.77c-1.65-10.61-4.63-21-6.69-31.5-.31-1.63-2.8-.94-2.48.68,1.86,9.52,4.46,18.88,6.17,28.43s2.26,19.33,2.7,29.05,1,19.45,1.76,29.16c.74,9.31,1.75,18.57,2.72,27.85a98.82,98.82,0,0,0,1.26,10c.61,3,1.59,6.49,4.1,8.44C188.94,271.9,190.77,270.09,189.47,269.07Z"/></g><path class="cls-4" d="M185.45,73.9s-4.79,16.71-6.14,22.4c-2.4,10.14-7.93,46.89-7.93,46.89s-21.49-53.8-9.77-67.52C165.49,71.12,185.45,73.9,185.45,73.9Z"/><path class="cls-12" d="M170.58,49.13l10.51,20.16c.71,3.15-10,12.27-15.83,9.36-1.71-.85-4-20.27-4-20.27Z"/><path class="cls-4" d="M150.68,150.16c-.82-31.23-5.29-58.47-13.94-54.86-18.19,7.59-58.21,82.32-53.18,119.44,4.8,35.38,33.6,40.38,54.28,20.41C159.38,218.27,155.28,167.06,150.68,150.16Z"/><path class="cls-12" d="M168.25,48c-.23-2.24-.27-2.79-.35-3.62-.16-1.57.09-4,2.55-3.1,3.56,1.33,4,9.77.12,10.8C167.73,52.88,168.46,50.13,168.25,48Z"/><path class="cls-12" d="M163.74,40.59l7.79,12.66a8.19,8.19,0,0,1-2.9,11.06c-3,1.83-5.17,2.44-9.53,3.12-3.63.58-6.39-2.28-7.7-6.88a97.89,97.89,0,0,1-2.76-15,10.76,10.76,0,0,1,.55-5.15c1-1.88,3-4.13,5.16-3.54C159,38.18,161.21,37.38,163.74,40.59Z"/><path class="cls-13" d="M93.92,199a1.09,1.09,0,0,1-.6-.17,1.13,1.13,0,0,1-.35-1.55c4.66-7.46,14.34-11.91,14.75-12.1a1.13,1.13,0,1,1,.93,2c-.1.05-9.48,4.36-13.78,11.24A1.12,1.12,0,0,1,93.92,199Z"/><path class="cls-13" d="M97.27,208.05a1.07,1.07,0,0,1-.25,0,1.12,1.12,0,0,1-.85-1.35,31,31,0,0,1,15.69-20.81,1.12,1.12,0,0,1,.94,2,29.33,29.33,0,0,0-14.43,19.28A1.14,1.14,0,0,1,97.27,208.05Z"/><path class="cls-4" d="M153.35,51.26c-1.22.24-5.24.88-4.73,4.73.14,1-.79,9,1.49,12.57,1.86,2.9,7.17,3.12,10.09,2.53s6.31-3.81,7.81-6c2.65-3.82,1.47-5.84,1.11-8.61-.58-4.54-1.38-14.75-2.6-14.31-.18.06-1.2.85-1,1.35,1.15,2.59.47,12.89-1.47,13.06C161.8,56.83,163,49.37,153.35,51.26Z"/><path class="cls-8" d="M111.1,195.07l56.8-5.48a4.67,4.67,0,0,0,4.07-5.85L151.54,106.4a4.68,4.68,0,0,0-5-3.46l-56.8,5.48a4.67,4.67,0,0,0-4.07,5.85l20.43,77.34A4.68,4.68,0,0,0,111.1,195.07Z"/><path class="cls-14" d="M100.45,107.68c.47-2.69,2.2-4.49,4.53-4.72l4.5-.43s.46-4.93,5.28-5.64c4.94-.23,7.86,4.37,7.86,4.37l4.5-.43c2.32-.23,4.88,1.16,6.67,3.63h0a2.81,2.81,0,0,1-2,4.46l-13.6,1.31-14.82,1.43a2.81,2.81,0,0,1-3-3.28Z"/><path class="cls-4" d="M178.39,63.93s.51,5.51-2.14,8.43c-4.86,5.34-8.52,6-8.52,6S164,74.92,163.17,72c-1.55.34-4,4.3-4.55,8.11a13.73,13.73,0,0,0,.74,6.83L167,81.58s7.83,1.44,10.88,5.22c0,0,7.78-7,8.44-15.54C186.43,69.19,178.39,63.93,178.39,63.93Z"/><path class="cls-4" d="M209,83.41c-12,6.17-3.41,32.31,8.67,64.6,9.12,24.4,18.65,38,18.65,38s-59.94-34.52-70.93-10.65C156.36,195,228.7,276.76,273.29,241.29,327.3,198.33,240.78,67.15,209,83.41Z"/><path class="cls-12" d="M173.31,160.36c-3.93-2.58-6.66-5.2-8-7.52s-2.93,1.8-1.14,5a36.59,36.59,0,0,1,2.78,6.51c-1.68.8-13.51-17-18-8.63-.78,1.48.34,5.16,2.61,9.16a25.13,25.13,0,0,1-2.34-3c-1.12-1.73-3.91-.11-2.78,1.63a27.79,27.79,0,0,0,8.78,8.62,34,34,0,0,0,3.25,1.76c3.37,3.2,7.23,5.39,10.94,5C180.06,177.68,177.24,163,173.31,160.36Z"/><path class="cls-15" d="M152.56,49.35a.53.53,0,0,1-.62-.43c-.14-.69-1.19-.4-1.05.29a1.59,1.59,0,0,0,1.67,1.22.56.56,0,0,0,.54-.54A.54.54,0,0,0,152.56,49.35Z"/><path class="cls-15" d="M156.34,44.22a.54.54,0,0,0-.66.38,2,2,0,0,0,.08,1,.54.54,0,0,0,1.05-.28.86.86,0,0,1-.08-.47A.56.56,0,0,0,156.34,44.22Z"/><path class="cls-15" d="M149.49,45.82l.17.6a.54.54,0,0,0,1-.29l-.16-.6A.55.55,0,0,0,149.49,45.82Z"/></g><path class="cls-4" d="M157,41.26h-1.81a.65.65,0,0,0,0,1.29H157A.65.65,0,0,0,157,41.26Z"/><path class="cls-4" d="M150.65,43.07a7.58,7.58,0,0,1-1.64-.2c-.8-.19-1.15,1.06-.34,1.24a9.42,9.42,0,0,0,2,.25A.65.65,0,0,0,150.65,43.07Z"/><path class="cls-12" d="M155,56.08a4,4,0,0,0-1.88.13c-.78.26-.44,1.51.34,1.24a2.58,2.58,0,0,1,1.2-.13.67.67,0,0,0,.79-.45A.63.63,0,0,0,155,56.08Z"/><path class="cls-13" d="M260.19,202.4c-3-3.16-6.21-6.21-9.54-9.07a4.12,4.12,0,0,1,2.89-.57,1.32,1.32,0,0,0,1.58-.9,1.29,1.29,0,0,0-.9-1.58,6.83,6.83,0,0,0-4.92.86,1.32,1.32,0,0,0-.52.62,87.09,87.09,0,0,0-16.6-10.93c-1.48-.74-2.78,1.48-1.3,2.22,10.47,5.21,19.41,12.79,27.49,21.17C259.52,205.41,261.34,203.59,260.19,202.4Z"/><path class="cls-8" d="M172.1,95.46c-.13-1-.26-2-.4-3a8.52,8.52,0,0,1-.15-2.71c.3-1.52.86-2.86.24-4.39-.83-2-2-4.75-4-5.94a1.31,1.31,0,0,0-1.76.46c-1.31,2-2.6,5.33-1.48,7.65.24.49.61.93.8,1.44a5.6,5.6,0,0,1,0,2.41c-.17,1.87-.43,3.72-.68,5.58a149.67,149.67,0,0,0-.71,24.32c0,.1,0,.2,0,.3,2,12.14,7.53,24.75,7.53,24.75A212.1,212.1,0,0,0,175.84,115,190.75,190.75,0,0,1,172.1,95.46Z"/><path class="cls-4" d="M203.5,133.53c-1.08-1.18-2.24-2.34-3.38-3.47a7.9,7.9,0,0,0-4.41-2.5,10.48,10.48,0,0,0-4.6.63c-3.49,1.13-7.3,3-9.77,5.8a.57.57,0,0,0,.27.91.52.52,0,0,0,.35.37,17.07,17.07,0,0,0,5.92.49,37.45,37.45,0,0,1,6.68.76c2,.32,4.05.44,6.09.56,1.07.07,2.69.26,3.56-.56S204.18,134.28,203.5,133.53Z"/><path class="cls-16" d="M54.65,157.26a1.38,1.38,0,0,1-1.38-1.44l.44-9.36c-2.9-.58-10.32-2.23-14.26-4.7-3.23-2-6-7.34-6.55-12.61a16.4,16.4,0,0,1,4.83-13.93c8.69-8.46,30.86-15.14,48.77-11.19a14.83,14.83,0,0,1,11.31,10.09c3.39,9.8-.77,23.74-5.13,29-6,7.25-25.7,5.43-29.89,5-2.29,2.73-7,8.57-7.07,8.63A1.37,1.37,0,0,1,54.65,157.26Zm20.53-51.64a66.05,66.05,0,0,0-15.67,2c-8.39,2.08-15.81,5.68-19.86,9.62a13.76,13.76,0,0,0-4,11.66c.52,4.86,3.09,9.19,5.28,10.56,4.4,2.77,14.36,4.53,14.46,4.55a1.37,1.37,0,0,1,1.14,1.42l-.3,6.36c1.72-2.1,3.84-4.69,4.94-6a1.41,1.41,0,0,1,1.24-.47c6.26.83,23.52,1.75,28.15-3.89,3.86-4.69,7.69-17.6,4.65-26.38a12,12,0,0,0-9.29-8.3A49.84,49.84,0,0,0,75.18,105.62Z"/><circle class="cls-14" cx="68.06" cy="126.01" r="12.64"/><path class="cls-6" d="M63.86,125.65A2.62,2.62,0,0,1,62,124.49a.42.42,0,0,1,.11-.58.43.43,0,0,1,.58.12s.68,1,1.48.75a1.28,1.28,0,0,0,.92-1,.42.42,0,0,1,.46-.36.41.41,0,0,1,.37.45,2.13,2.13,0,0,1-1.51,1.74A1.8,1.8,0,0,1,63.86,125.65Z"/><path class="cls-6" d="M71.84,125.65a1.8,1.8,0,0,1-.5-.08,2.13,2.13,0,0,1-1.51-1.74.43.43,0,0,1,.37-.46.42.42,0,0,1,.46.38,1.28,1.28,0,0,0,.92,1c.79.23,1.48-.74,1.48-.75a.42.42,0,0,1,.58-.11.4.4,0,0,1,.11.57A2.64,2.64,0,0,1,71.84,125.65Z"/><path class="cls-6" d="M71.69,130H64.43a.42.42,0,0,1,0-.83h7.26a.42.42,0,1,1,0,.83Z"/><path class="cls-4" d="M73.92,126.32c0,.1.14,2.68,1.28,2.16S73.92,126.32,73.92,126.32Z"/><path class="cls-2" d="M102.55,292.77H14.63c-1.62,0-8.41.44-6.89,1.43s11.14,1.44,12.76,1.44h84.66c4.93,0,9.31-.65,7.69-1.44h0C111.24,293.41,107.92,292.77,102.55,292.77Z"/><path class="cls-6" d="M54.62,174.73s-1.63.14-1.69,1.52c-1,1.4-.89,4.07-1.48,5s-2.6,3.24-2.87,5.62c-.58,5.15,6.57,4.74,11.55,3.79s7.07-4.37,6.61-5.77-3.81-3.21-3.19-4.49C64,179.52,63,177.64,62,177S54.62,174.73,54.62,174.73Z"/><path class="cls-17" d="M60.32,188l28.16-3.82s4.61,1.69,4.13,4.84c-.67,4.49-19,11-24.22,10.14S56.77,187.93,60.32,188Z"/><path class="cls-17" d="M81.23,189.14S61.25,181.48,62,179s24.35,1.69,28.29,6.39S84.22,191,81.23,189.14Z"/><path class="cls-18" d="M99.18,293.27C98,292.69,97.1,291,96.5,290a12.81,12.81,0,0,1-.47-1.24c-.06-.52-1.58-1.93-2.12-.88-1,2.08-.41-.5-1,.13-1.06,1.06-1.69,5.91-.9,6.59,1.53,1.29,12.19,2.05,12.25,1C104.26,295,101.25,294.26,99.18,293.27Z"/><path class="cls-19" d="M35.8,189.89s12.07-5.42,16.74-8.84a2.06,2.06,0,0,0,.68-2.87c-2.14-2.42-23.92,1.92-29.71,8.07C19.31,190.71,32.82,191.7,35.8,189.89Z"/><path class="cls-19" d="M55.7,191.74c-1.4,2.85-4.6,6.37-7.72,6.95a10.53,10.53,0,0,1-1.33.16c-8.15.5-24.86-5.71-24.23-10.14s5-3.79,5-3.79l26.13,2.84,1.61.18.25,0C56.76,188.15,56.65,189.79,55.7,191.74Z"/><path class="cls-6" d="M18.75,294a1.08,1.08,0,0,1-.3,0,1.16,1.16,0,0,1-.82-1.43L28.52,251.6a1.17,1.17,0,0,1,2.26.6l-10.9,40.93A1.16,1.16,0,0,1,18.75,294Z"/><path class="cls-6" d="M65.44,294a1.16,1.16,0,0,1-1.12-.87L53.42,252.2a1.17,1.17,0,0,1,2.26-.6l10.89,40.93a1.16,1.16,0,0,1-.82,1.43A1.15,1.15,0,0,1,65.44,294Z"/><path class="cls-6" d="M36.65,294a1,1,0,0,1-.3,0,1.18,1.18,0,0,1-.83-1.43l10.9-40.93a1.16,1.16,0,0,1,1.43-.83,1.18,1.18,0,0,1,.83,1.43l-10.9,40.93A1.16,1.16,0,0,1,36.65,294Z"/><path class="cls-6" d="M83.34,294a1.16,1.16,0,0,1-1.13-.87L71.32,252.2a1.16,1.16,0,1,1,2.25-.6l10.9,40.93a1.16,1.16,0,0,1-.83,1.43A1,1,0,0,1,83.34,294Z"/><path class="cls-14" d="M62.68,254.36c-2.76-.44-5.14-1-6.3-1.09-3.3-.27-30.4-8.7-33.24-12s-10.81-18.56-10.81-18.56l-.73-6.92-.44-7.2s-1.08-8.89,13.35-8.26c13.48.59,28.12,15.75,31.5,19.23s12.39,2.66,16.54,7.05c3.45,3.65,5.47,9.63,6,13Z"/><path class="cls-20" d="M79.48,239.39l-18,10,1.22,5c5.09.81,11.58,1.48,14-1.92,2.1-2.94,2.9-5.78,3-11.36A10.17,10.17,0,0,0,79.48,239.39Z"/><path class="cls-19" d="M73.06,226.85s-1.75,5.52-14.9,7.43c-5,.73-12.29,5.27-17.2,5.62-3-5.88,1.19-12.81,1.75-17.09.89-6.68,3.75-13.75,3.94-24a57.39,57.39,0,0,0-.25-6.55c-.2-2.12,4-3.45,7.18-4.09.58-.11,1.12-.2,1.59-.27l.81-.1a14,14,0,0,1,2.65-.07c9.14.63,12.65,10.54,12.65,23.69A77.2,77.2,0,0,0,73.06,226.85Z"/><path class="cls-4" d="M58.82,188l-.19-.22a14,14,0,0,0-2.65.07l-.81.1-1.61-.18c0,.16,0,.3,0,.45a5.62,5.62,0,0,0,2.06,3.48l.06.05c1,.84,3,1.93,4.2.74C61.26,191.09,59.76,189.1,58.82,188Z"/><path class="cls-21" d="M112.21,237c-2.13-9.31-39.15-10.14-39.15-10.14s-8.73,4.41-15.8,9C53,238.57,45.88,239.55,41,239.9c1.2,2.34,3.56,4.52,7.76,6.29,14.73,6.2,49.68-4.07,49.68-4.07l-7.48,47.71,9,2.16S114.35,246.29,112.21,237Z"/><path class="cls-6" d="M62.34,281.55a.77.77,0,0,1-.36-.09L26.79,262a.75.75,0,1,1,.73-1.32l35.19,19.51a.75.75,0,0,1-.37,1.41Z"/><path class="cls-6" d="M21.5,283.27a.76.76,0,0,1-.42-1.39l35-23.27a.76.76,0,0,1,1.05.22.75.75,0,0,1-.21,1l-35,23.27A.72.72,0,0,1,21.5,283.27Z"/><path class="cls-6" d="M80,281.55a.84.84,0,0,1-.37-.09L44.42,262a.76.76,0,0,1,.74-1.32l35.19,19.51a.75.75,0,0,1-.37,1.41Z"/><path class="cls-6" d="M39.14,283.27a.77.77,0,0,1-.63-.34.76.76,0,0,1,.21-1.05l35-23.27a.76.76,0,0,1,1,.22.75.75,0,0,1-.21,1l-35,23.27A.74.74,0,0,1,39.14,283.27Z"/><path class="cls-18" d="M77.15,291.19c-.16-.48.13-.76.13-2,0-.08.62-1.56.67-1.68.2-.5-.47-2.55-1.48-1.86-2,1.35-2.09-2.61-2.39-1.72-.88,2.63-3.27,6-2.72,6.91,1.94,3.32,8.8,5.47,9.38,4.58C81.08,294.87,77.59,292.5,77.15,291.19Z"/><path class="cls-22" d="M44,234.58s13.49-1.31,21.19-3.88c8.28-1.4,31.07-.83,34.18,6,4.27,9.41-18.05,52.51-18.05,52.51l-8.66-4.07L81,246.54s-9.91,5.67-26.77,3.33C45.23,248.62,33.46,242.05,44,234.58Z"/><path class="cls-5" d="M11.16,208.6c0,10.5,5.48,19.61,5.48,19.61,2.6,4.48,7.72,5.79,12.47,5.79H46.52a13.47,13.47,0,0,1,12.18,7.72c1.76,3.72,4.61,8.52,8,8.6A38.93,38.93,0,0,1,76.8,252s-1,4.24-14.35,4-37.9,0-43.67-4S11.16,210.55,11.16,208.6Z"/><path class="cls-12" d="M56.42,182.11l-1.34,5.77c-.36,1,2,4.17,4,3.46.6-.21.08-1.77,0-3l.23-5.92Z"/><path class="cls-12" d="M56.3,178.68l-.1,2.53c-.09,2,1.47,3.31,3.47,3.43,1.19.08,2.58,0,3.22-1a3.23,3.23,0,0,0,.22-2.11,10,10,0,0,0-1.8-4.77C59.88,174.77,56.63,175.79,56.3,178.68Z"/><path class="cls-4" d="M62.59,182.22a4.59,4.59,0,0,1-2.86.29S61.41,179.55,62.59,182.22Z"/><path class="cls-15" d="M60.63,180.13a1.64,1.64,0,0,0,.62-.58c.13-.19.39,0,.27.22a1.84,1.84,0,0,1-.69.64C60.64,180.52,60.43,180.24,60.63,180.13Z"/><path class="cls-6" d="M56.84,176.69a30,30,0,0,0,3.17-.07,1.38,1.38,0,0,1,1.05.32,7.18,7.18,0,0,1,2,3.94c.47.61.78.9.51.27-.41-1,.43-2,.52-2.61a9,9,0,0,0,.15-2.71c-.3-2.14-1.07-3.87-3.5-3.62-2.74.28-3.21,1.37-4.61,1.42s-2.13.31-2.17,1.44C53.91,176,53.26,176.33,56.84,176.69Z"/><path class="cls-6" d="M57,176.63a3.38,3.38,0,0,1,0,3.74c-.35.59-1.71-.11-1.71-.11s-.38-3.77,1.1-4.08S57,176.63,57,176.63Z"/><path class="cls-12" d="M56.78,180.56s-.62-1.61-1.47-1.2-.1,3.36,1.08,3.14S57.1,181.4,56.78,180.56Z"/><path class="cls-12" d="M51.93,178.45s.08-2.6.62-3.27a3.25,3.25,0,0,1,2.54-.77c.45.15-1.06.88-1.06.88s1.29-.47,1.74,0-1.22,1.29-1.22,1.46.94-.58,1-.35-1.23,1.22-1.26,2-1.11,1.81-1.71,1.38A2.17,2.17,0,0,1,51.93,178.45Z"/><path class="cls-17" d="M71.28,211.46c0-12.28-2.13-21.92-10.92-23.44,2.93,2.58,4.58,6.92,5,10.68.46,4.32-2.33,19.9-1,26.46a37.06,37.06,0,0,0,1.19,5.45,21.63,21.63,0,0,0,7.5-3.77A77,77,0,0,1,71.28,211.46Z"/><path class="cls-23" d="M69.86,197.53A33.61,33.61,0,0,0,68,194.42a7.18,7.18,0,0,1-1.62-3.86.42.42,0,0,0-.83,0c0,2.43,2,4.51,3.12,6.51a13.68,13.68,0,0,1,1.94,7.19.42.42,0,0,0,.83,0A13.82,13.82,0,0,0,69.86,197.53Z"/><path class="cls-23" d="M81.39,187.86c-1.46-.42-3-.57-4.42-1s-2.77-1.17-4.22-1.58a.33.33,0,0,0-.18.64c1.45.41,2.76,1.2,4.22,1.58s3,.53,4.42.95A.33.33,0,0,0,81.39,187.86Z"/><path class="cls-24" d="M49.44,198.31c-1.43,0-2.84.31-4.27.34a.33.33,0,0,0,0,.66c1.43,0,2.84-.3,4.27-.33A.34.34,0,0,0,49.44,198.31Z"/><path class="cls-24" d="M46.2,184.64C43,187,39.1,187.9,35.44,189.17c-.4.14-.22.78.19.64,3.71-1.29,7.69-2.25,10.91-4.6C46.89,185,46.54,184.39,46.2,184.64Z"/><path class="cls-24" d="M60.44,206.56a8.84,8.84,0,0,1-8.75-2.25.33.33,0,0,0-.47.47,9.52,9.52,0,0,0,9.4,2.42A.33.33,0,0,0,60.44,206.56Z"/><path class="cls-25" d="M82.43,243.2c-.46.92-.89,1.86-1.27,2.81a2.61,2.61,0,0,1-.56-.54,6.38,6.38,0,0,1-.6-.84c-.21-.37-.78,0-.57.34a4.18,4.18,0,0,0,1.49,1.66,32.48,32.48,0,0,0-1.36,4.6c-.09.41.55.59.64.17a32.9,32.9,0,0,1,2.8-7.86C83.19,243.16,82.62,242.82,82.43,243.2Z"/><path class="cls-6" d="M59.54,178.6a2.57,2.57,0,0,0-1.26,0c-.3.12-.17.6.13.49a2,2,0,0,1,1,0C59.73,179.13,59.86,178.65,59.54,178.6Z"/><path class="cls-6" d="M62.19,178a1.45,1.45,0,0,0-.87.47c-.24.22.12.57.35.35s.31-.31.52-.32S62.51,177.94,62.19,178Z"/><path class="cls-26" d="M60.12,184.51a3.14,3.14,0,0,1-2-.79c-.15-.14-.39.09-.23.24a3.5,3.5,0,0,0,2.28.88C60.33,184.85,60.33,184.52,60.12,184.51Z"/><path class="cls-27" d="M6.18,79.44H90.76s1.79-7.38-6.73-9.91S70.79,71,70.79,71s5.84-19.6-11.89-26.73S26.82,54.4,24.8,60.82A46.88,46.88,0,0,0,22.56,71S11.11,64.06,6.18,79.44Z"/><path class="cls-4" d="M34.45,55.27c-3.47,4.18-7.18,8.86-7.12,14.57a.76.76,0,0,0,1.51,0c-.06-5.28,3.47-9.65,6.68-13.5C36.13,55.6,35.07,54.53,34.45,55.27Z"/><path class="cls-4" d="M40.58,50.67a.76.76,0,0,0-1.06,0,4.52,4.52,0,0,1-.5.48l0,0-.13.09-.33.2a.75.75,0,1,0,.76,1.3,5,5,0,0,0,1.3-1A.78.78,0,0,0,40.58,50.67Z"/><path class="cls-27" d="M72.34,37.75h60.24a7.87,7.87,0,0,0,7.53-5.57c1.78-5.87,2.71-14.86-6.08-19.33C120.35,5.9,110.25,25.3,110.25,25.3s-2-6.84-10.32-4.37a12.44,12.44,0,0,0-9,10.32S74.45,16,72.34,37.75Z"/></svg>